PathFileType	4	(X/Y/Z)	Patient4_TMGait_0pt5_02_right_34.trc.trc
DataRate	CameraRate	NumFrames	NumMarkers	Units	OrigDataRate	OrigDataStartFrame	OrigNumFrames
76.923076923077	76.923076923077	4	33	mm	76.923076923077	124	       141
Frame#	Time	Sacral			L.Shoulder			Chest			R.Shoulder			Neck			R.ASIS			L.ASIS			R.Thigh.Superior			R.Thigh.Lateral			R.Thigh.Inferior			R.Patella			L.Thigh.Superior			L.Thigh.Lateral			L.Thigh.Inferior			L.Patella			L.Shank.Superior			L.Shank.Lateral			L.Shank.Inferior			R.Shank.Superior			R.Shank.Lateral			R.Shank.Inferior			R.Heel			R.Midfoot.Superior			R.Midfoot.Lateral			R.Toe			L.Heel			L.Midfoot.Lateral			L.Midfoot.Superior			L.Toe			L.Elbow			L.Wrist			R.Elbow			R.Wrist			
		X1	Y1	Z1	X2	Y2	Z2	X3	Y3	Z3	X4	Y4	Z4	X5	Y5	Z5	X6	Y6	Z6	X7	Y7	Z7	X8	Y8	Z8	X9	Y9	Z9	X10	Y10	Z10	X11	Y11	Z11	X12	Y12	Z12	X13	Y13	Z13	X14	Y14	Z14	X15	Y15	Z15	X16	Y16	Z16	X17	Y17	Z17	X18	Y18	Z18	X19	Y19	Z19	X20	Y20	Z20	X21	Y21	Z21	X22	Y22	Z22	X23	Y23	Z23	X24	Y24	Z24	X25	Y25	Z25	X26	Y26	Z26	X27	Y27	Z27	X28	Y28	Z28	X29	Y29	Z29	X30	Y30	Z30	X31	Y31	Z31	X32	Y32	Z32	X33	Y33	Z33	

124	46.029000000000	720.473200145068	1005.545639148397	461.400766019319	933.232212511459	1410.833959855904	271.028052388797	1013.900358108516	1348.970487570225	446.473254592424	917.878996547775	1439.603080867312	605.906696713458	918.859719930727	1483.646925614017	416.250846382639	936.702762968253	931.673871384907	594.814626157180	942.504474452320	951.525913183835	319.196444107257	1002.303361221041	752.294497432749	568.475644484153	944.011462299988	630.702795458662	632.519412971232	1033.653734957726	590.846920832975	555.651366600446	1059.843098669596	509.514901230671	565.602043371877	935.993938464858	726.532221182979	347.149915944985	817.404938327993	636.490545665468	282.679593379224	871.755613397753	541.837736600562	348.672975557173	854.729542864275	475.737468243190	358.472855531912	822.389231637966	411.094891999700	349.935804975027	722.332710651742	305.831335317443	296.728483371539	759.554166012268	191.531918987970	373.224136423877	1047.293038685904	421.656012570632	573.507823729112	996.702431373415	306.306710330291	633.747014119953	1066.981409551224	223.075648377914	579.964944358831	974.156557657924	43.044404077158	550.285433710257	1140.544849723149	107.758644392039	586.327184455040	1059.002205690063	39.306139638031	623.347138499977	1263.481433285519	65.194963799455	610.877158994704	618.991169440022	39.042254109802	412.457132661463	698.194011418545	34.753871453202	337.306695266864	779.888883631087	95.635028928945	367.644876395871	909.514126748076	42.586861582636	350.072418893925	990.253189871476	1065.488804789201	149.377390510601	1231.821123252441	969.223088046797	154.077098563462	743.051066651781	1153.946358210377	730.833646953894	684.513648124963	899.791539813626	753.804027435454	
125	46.042000000000	721.828909878458	1004.323877264700	464.285005713588	932.579960256685	1410.543606965264	274.313139471208	1014.101025873500	1348.748195446211	449.411880430874	917.900305023711	1438.406660393961	609.348317524579	918.502917111027	1483.026295789819	419.755277178738	938.759665424418	930.400683472193	596.688538235479	943.582810817571	950.888249506726	321.354856937445	1004.773715420421	750.912079606565	569.895910690317	944.842157244389	629.322248895805	632.777963402054	1034.743253101030	589.880142602521	556.196497123707	1059.550442503985	507.737517289506	565.395107913540	936.502568702785	725.461302132450	348.449501721280	816.884579206992	636.029789501527	284.562770048879	870.945167128443	540.852303749902	350.157615493762	853.763606849792	474.269352011258	359.888988581560	820.315783202721	409.979227517699	351.287455911860	718.655814540036	306.223000767247	297.909577958386	754.343710400116	191.095527884065	373.814496846102	1046.121438162790	419.115209914678	573.214207197279	993.564771405486	304.353147657258	633.072304362963	1062.144476759537	220.154975688445	578.923075764658	965.514788286627	42.555430224870	549.024416039301	1132.935784384371	104.271660768206	585.061403040993	1050.014732534396	38.043914154282	622.524876823939	1255.284082600305	59.859842032608	610.343689738164	612.385216494049	39.414423266209	412.415369457948	691.652922607651	34.795229403958	337.381063256534	773.511225463548	95.614760981130	367.689613852055	903.075057056398	42.257935755524	350.038404657089	987.701349617682	1064.465161616557	152.684037135735	1228.098760385591	964.962849573198	157.868703768302	746.688016650789	1149.949682816260	734.010898251040	693.788228178458	894.373497274809	756.186651184368	
126	46.055000000000	723.174113808588	1003.338813270018	467.203837767645	931.965916957580	1410.566998064150	277.756337141574	1014.368988434819	1348.731448509207	452.466535930126	918.037213751659	1437.333860864821	612.975035824290	918.276180360808	1482.661278713223	423.462583592067	940.852854694124	929.428996058248	598.577391614140	944.606477598215	950.450579602024	323.561157141746	1007.417048671005	749.922257482991	571.034745069371	946.194656804149	628.482296091744	633.062663243305	1036.042184536396	589.349864196808	556.443425129549	1059.450825685825	506.316682883796	565.031566329533	937.503533193389	724.626441417365	349.890633395835	817.200881365305	635.456759024228	286.662370945340	871.273068563727	539.878099344491	351.888607772192	854.059255629852	472.604013611654	361.482648512348	819.235376105376	408.686389629028	352.827513819945	715.722238678929	306.750840533212	299.264142285910	749.539791357834	190.700529886852	374.486716877670	1045.196751495484	417.011877132025	572.945205941034	990.936816999162	302.923015561948	632.804540719573	1057.553368437799	217.694624685957	578.039474200138	957.093401973223	42.221296219336	548.222722827738	1125.408290911618	101.476921612090	584.024050356036	1041.366595506776	37.147689092844	622.026326003676	1247.292865226340	55.556544436344	609.843416047047	605.810307455377	40.186060316179	412.363816801174	685.145481933335	34.986981192189	337.472639364757	767.306300430543	95.612406674493	367.718238040526	896.674836915135	41.836786875118	350.012570060744	984.798359627935	1063.653761696970	156.167341303928	1223.583283255818	959.905111430795	161.630762530922	750.953533062658	1145.666954582622	737.229605555086	704.297490474366	888.680141708806	758.671747459549	
127	46.068000000000	724.471649890644	1002.647692672733	470.129094630797	931.435996540639	1410.949417042548	281.327968699579	1014.697005610689	1348.937638587668	455.615304439718	918.301238322451	1436.442353330812	616.745823247144	918.194677207537	1482.590401448960	427.338520463503	942.912761765670	928.827141424215	600.514442966232	945.543612631078	950.262546952542	325.814247919869	1010.097967315892	749.371624840153	571.900887842445	948.000422936562	628.195285268029	633.418767642304	1037.442417901958	589.236915835069	556.428240685752	1059.464211337240	505.264588880246	564.591520957146	939.004176871922	724.087502168707	351.538072955202	818.472980190153	634.765636873205	288.974158160276	872.916214346269	538.940361577521	353.873725000786	855.800823238683	470.750814534489	363.206672478640	819.287798474807	407.233529128076	354.521162083198	713.657182167017	307.483947061072	300.773023877099	745.252538127095	190.420139931949	375.204753301960	1044.443168286110	415.389570127877	572.741496165492	988.786043744375	302.028008786043	632.946842600307	1053.254961085513	215.763542305814	577.344283723744	949.125374111147	42.027083561967	547.823841192756	1118.144207768756	99.459735233396	583.243662307718	1033.275895494212	36.594511744643	621.806937092850	1239.698012280963	52.407575064059	609.411680308486	599.320759661879	41.539834137316	412.296622482491	678.703380895794	35.429815801595	337.575357176723	761.350931389053	95.655208001712	367.709135969047	890.312708137966	41.330940837035	350.001273505472	981.547495398108	1063.112232343582	159.837610806899	1218.193694850606	954.095538344530	165.359743814226	755.856670288977	1141.196217103252	740.449120109452	716.014600022297	882.872036654111	761.251598105460	
